<svg width="48" height="56" viewBox="0 0 48 56" fill="none" xmlns="http://www.w3.org/2000/svg">
  <defs>
    <!-- Gradiente exterior del escudo -->
    <linearGradient id="shieldOuter" x1="24" y1="0" x2="24" y2="56" gradientUnits="userSpaceOnUse">
      <stop offset="0%" stop-color="#2A3F5F"/>
      <stop offset="100%" stop-color="#0F1C2E"/>
    </linearGradient>
    <!-- Gradiente interior del escudo -->
    <linearGradient id="shieldInner" x1="12" y1="10" x2="38" y2="50" gradientUnits="userSpaceOnUse">
      <stop offset="0%" stop-color="#6B9AF7"/>
      <stop offset="40%" stop-color="#3B6FE0"/>
      <stop offset="100%" stop-color="#2248A8"/>
    </linearGradient>
    <!-- Gradiente para las barras -->
    <linearGradient id="barGradient" x1="0" y1="0" x2="0" y2="1">
      <stop offset="0%" stop-color="white" stop-opacity="0.95"/>
      <stop offset="100%" stop-color="white" stop-opacity="0.65"/>
    </linearGradient>
  </defs>
  
  <!-- Capa exterior del escudo -->
  <path d="M24 1.5 C24 1.5 46 9 46 9 L46 30 C46 42.5 36.5 51.5 24 55 C11.5 51.5 2 42.5 2 30 L2 9 C2 9 24 1.5 24 1.5Z" fill="url(#shieldOuter)"/>
  
  <!-- Capa interior del escudo -->
  <path d="M24 7.5 C24 7.5 41 13.5 41 13.5 L41 30 C41 40 33.5 47.5 24 50.5 C14.5 47.5 7 40 7 30 L7 13.5 C7 13.5 24 7.5 24 7.5Z" fill="url(#shieldInner)"/>
  
  <!-- Highlight superior sutil -->
  <path d="M24 7.5 C24 7.5 41 13.5 41 13.5 L41 20 C30 17 18 17 7 20 L7 13.5 C7 13.5 24 7.5 24 7.5Z" fill="white" opacity="0.1"/>
  
  <!-- Barras de datos (gráfico) -->
  <rect x="14.5" y="26" width="4.5" height="13" rx="2" fill="url(#barGradient)"/>
  <rect x="21.75" y="21" width="4.5" height="18" rx="2" fill="url(#barGradient)"/>
  <rect x="29" y="24" width="4.5" height="15" rx="2" fill="url(#barGradient)"/>
</svg>
