<svg width="48" height="48" viewBox="0 0 48 48" fill="none" xmlns="http://www.w3.org/2000/svg">
  <defs>
    <linearGradient id="shieldGrad" x1="24" y1="0" x2="24" y2="48" gradientUnits="userSpaceOnUse">
      <stop offset="0%" stop-color="#3B6FE0"/>
      <stop offset="100%" stop-color="#0F1C2E"/>
    </linearGradient>
    <linearGradient id="barGrad" x1="0" y1="0" x2="0" y2="1" gradientUnits="objectBoundingBox">
      <stop offset="0%" stop-color="white" stop-opacity="0.95"/>
      <stop offset="100%" stop-color="white" stop-opacity="0.65"/>
    </linearGradient>
    <filter id="shadow">
      <feDropShadow dx="0" dy="1.5" stdDeviation="1.5" flood-color="#00000040"/>
    </filter>
  </defs>

  <!-- Hexágono -->
  <path d="M24 2 L43 13 L43 35 L24 46 L5 35 L5 13 Z" fill="url(#shieldGrad)" filter="url(#shadow)"/>
  <!-- Brillo superior -->
  <path d="M24 2 L43 13 L43 19 C33 15.5 15 15.5 5 19 L5 13 Z" fill="white" opacity="0.13"/>
  <!-- Borde interno -->
  <path d="M24 5.5 L40.5 15 L40.5 33 L24 42.5 L7.5 33 L7.5 15 Z" fill="none" stroke="white" stroke-opacity="0.18" stroke-width="0.8"/>

  <!-- Barras de estadística -->
  <rect x="12" y="26" width="5" height="12" rx="2" fill="url(#barGrad)"/>
  <rect x="21.5" y="20" width="5" height="18" rx="2" fill="url(#barGrad)"/>
  <rect x="31" y="23" width="5" height="15" rx="2" fill="url(#barGrad)"/>
</svg>
