<svg width="512" height="512" viewBox="0 0 512 512" fill="none" xmlns="http://www.w3.org/2000/svg">
  <!-- Fondo -->
  <rect width="512" height="512" fill="#0F1C2E"/>

  <!-- Escudo — colores sólidos compatibles con ImageMagick -->
  <g transform="translate(256, 248) scale(5.5) translate(-24, -24)">
    <!-- Cuerpo principal del escudo -->
    <path d="M24 2 L43 13 L43 35 L24 46 L5 35 L5 13 Z" fill="#2563EB"/>
    <!-- Brillo superior -->
    <path d="M24 2 L43 13 L43 17 C33 14 15 14 5 17 L5 13 Z" fill="#93C5FD" opacity="0.35"/>
    <!-- Borde interno sutil -->
    <path d="M24 5.5 L40.5 15 L40.5 33 L24 42.5 L7.5 33 L7.5 15 Z" fill="none" stroke="white" stroke-opacity="0.25" stroke-width="1"/>
    <!-- Barras estadísticas (blanco) -->
    <rect x="12" y="26" width="5" height="12" rx="2" fill="white" opacity="0.85"/>
    <rect x="21.5" y="20" width="5" height="18" rx="2" fill="white"/>
    <rect x="31" y="23" width="5" height="15" rx="2" fill="white" opacity="0.85"/>
  </g>
</svg>
