<svg width="320" height="90" viewBox="0 0 320 90" fill="none" xmlns="http://www.w3.org/2000/svg">
  <defs>
    <!-- Gradientes del escudo -->
    <linearGradient id="shieldOuterHero" x1="31" y1="8" x2="31" y2="80" gradientUnits="userSpaceOnUse">
      <stop offset="0%" stop-color="#2A3F5F"/>
      <stop offset="100%" stop-color="#0F1C2E"/>
    </linearGradient>
    <linearGradient id="shieldInnerHero" x1="18" y1="20" x2="50" y2="72" gradientUnits="userSpaceOnUse">
      <stop offset="0%" stop-color="#6B9AF7"/>
      <stop offset="40%" stop-color="#3B6FE0"/>
      <stop offset="100%" stop-color="#2248A8"/>
    </linearGradient>
    <linearGradient id="barHero" x1="0" y1="0" x2="0" y2="1">
      <stop offset="0%" stop-color="white" stop-opacity="0.95"/>
      <stop offset="100%" stop-color="white" stop-opacity="0.65"/>
    </linearGradient>
    <!-- Gradientes del texto -->
    <linearGradient id="fleetGradHero" x1="0" y1="0" x2="0" y2="38" gradientUnits="userSpaceOnUse">
      <stop offset="0%" stop-color="#2A3F5F"/>
      <stop offset="100%" stop-color="#0F1C2E"/>
    </linearGradient>
    <linearGradient id="coreGradHero" x1="110" y1="0" x2="220" y2="38" gradientUnits="userSpaceOnUse">
      <stop offset="0%" stop-color="#6B9AF7"/>
      <stop offset="40%" stop-color="#3B6FE0"/>
      <stop offset="100%" stop-color="#2248A8"/>
    </linearGradient>
  </defs>
  
  <!-- Escudo (icono) más grande -->
  <g transform="translate(7, 9) scale(1.3)">
    <path d="M24 1.5 C24 1.5 46 9 46 9 L46 30 C46 42.5 36.5 51.5 24 55 C11.5 51.5 2 42.5 2 30 L2 9 C2 9 24 1.5 24 1.5Z" fill="url(#shieldOuterHero)"/>
    <path d="M24 7.5 C24 7.5 41 13.5 41 13.5 L41 30 C41 40 33.5 47.5 24 50.5 C14.5 47.5 7 40 7 30 L7 13.5 C7 13.5 24 7.5 24 7.5Z" fill="url(#shieldInnerHero)"/>
    <path d="M24 7.5 C24 7.5 41 13.5 41 13.5 L41 20 C30 17 18 17 7 20 L7 13.5 C7 13.5 24 7.5 24 7.5Z" fill="white" opacity="0.1"/>
    <path d="M24 50.5 C14.5 47.5 7 40 7 30 L7 28 C12 36 18 40 24 42 C30 40 36 36 41 28 L41 30 C41 40 33.5 47.5 24 50.5Z" fill="#0F1C2E" opacity="0.12"/>
    <rect x="14.5" y="26" width="4.5" height="13" rx="2" fill="url(#barHero)"/>
    <rect x="21.75" y="21" width="4.5" height="18" rx="2" fill="url(#barHero)"/>
    <rect x="29" y="24" width="4.5" height="15" rx="2" fill="url(#barHero)"/>
  </g>
  
  <!-- Texto FleetCore más grande -->
  <g transform="translate(85, 20)">
    <text x="0" y="30" font-family="Plus Jakarta Sans, Arial, sans-serif" font-weight="800" font-size="38" letter-spacing="-0.5" fill="url(#fleetGradHero)">Fleet</text>
    <text x="108" y="30" font-family="Plus Jakarta Sans, Arial, sans-serif" font-weight="800" font-size="38" letter-spacing="-0.5" fill="url(#coreGradHero)">Core</text>
    <text x="0" y="50" font-family="Plus Jakarta Sans, Arial, sans-serif" font-weight="500" font-size="12" letter-spacing="0.6" fill="#8494A7">El núcleo de tu operación</text>
  </g>
</svg>
